<svg width="320" height="132" viewBox="0 0 320 132" fill="none" xmlns="http://www.w3.org/2000/svg">
<rect width="320" height="132" fill="white"/>
<ellipse cx="63.5" cy="66" rx="51.5" ry="49" fill="#FCB122"/>
<path d="M66 83.7869V66H67.92L69.2 66.1694L70.32 66.5082L71.44 66.6776L72.56 67.0164L73.36 67.1858L74.16 67.5246L74.8 67.694L75.6 68.0328L76.24 68.2022L76.88 68.541L77.36 68.7104L78 69.0492L78.48 69.2186L78.96 69.5574L79.44 69.7268L79.92 70.0656L80.24 70.235L80.56 70.4044L81.04 70.7432L81.36 71.082L81.84 71.2514L82.16 71.5902L82.48 71.7596L82.64 71.929L82.96 72.2678L83.28 72.4372L83.76 72.776L84.08 73.1148L84.4 73.2842L84.72 73.623L85.04 73.9618L85.36 74.3005L85.68 74.6393L86 74.9781L86.32 75.3169L86.64 75.8251L86.96 76.1639L87.12 76.5027L87.44 76.8415L87.6 77.1803L87.76 77.5191L87.92 77.6885L88.08 78.1967L88.4 78.7049L88.56 79.2131L88.88 79.7213L89.04 80.2295L89.36 80.9071L89.52 81.4153L89.84 82.4317L90 83.7869V88.1913L89.84 89.0383L89.68 89.377L89.52 90.0546L89.2 90.7322L89.04 91.2404L88.88 91.7486L88.56 92.2568L88.4 92.765L88.24 93.1038L87.92 93.4426L87.6 93.9508L87.28 94.459L86.8 94.9672L86.48 95.306L86.16 95.6448L85.84 95.9836L85.36 96.3224L84.72 96.6612L84.24 97H83.92H82.32H80.88H79.76L78.96 96.8306L78.16 96.4918L77.52 96.3224L76.72 96.153L75.92 95.8142L75.44 95.6448L74.8 95.306L74.32 95.1366L73.84 94.7978L73.36 94.6284L72.88 94.2896L72.4 93.9508L71.92 93.612L71.44 93.2732L70.96 92.9344L70.32 92.4262L69.84 91.918L69.36 91.4098L69.04 90.9016L68.72 90.5628L68.4 90.0546L68.24 89.7158L68.08 89.377L67.76 88.8689L67.44 88.3607L67.12 87.8525L66.96 87.1749L66.64 86.6667L66.48 85.9891L66.16 85.1421L66 84.6339V83.7869Z" fill="white"/>
<path d="M66.32 85.3115L66.16 85.1421M66.16 85.1421L66 84.6339V83.7869V66H67.92L69.2 66.1694L70.32 66.5082L71.44 66.6776L72.56 67.0164L73.36 67.1858L74.16 67.5246L74.8 67.694L75.6 68.0328L76.24 68.2022L76.88 68.541L77.36 68.7104L78 69.0492L78.48 69.2186L78.96 69.5574L79.44 69.7268L79.92 70.0656L80.24 70.235L80.56 70.4044L81.04 70.7432L81.36 71.082L81.84 71.2514L82.16 71.5902L82.48 71.7596L82.64 71.929L82.96 72.2678L83.28 72.4372L83.76 72.776L84.08 73.1148L84.4 73.2842L84.72 73.623L85.04 73.9617L85.36 74.3005L85.68 74.6393L86 74.9781L86.32 75.3169L86.64 75.8251L86.96 76.1639L87.12 76.5027L87.44 76.8415L87.6 77.1803L87.76 77.5191L87.92 77.6885L88.08 78.1967L88.4 78.7049L88.56 79.2131L88.88 79.7213L89.04 80.2295L89.36 80.9071L89.52 81.4153L89.84 82.4317L90 83.7869V88.1913L89.84 89.0383L89.68 89.377L89.52 90.0546L89.2 90.7322L89.04 91.2404L88.88 91.7486L88.56 92.2568L88.4 92.765L88.24 93.1038L87.92 93.4426L87.6 93.9508L87.28 94.459L86.8 94.9672L86.48 95.306L86.16 95.6448L85.84 95.9836L85.36 96.3224L84.72 96.6612L84.24 97H83.92H82.32H80.88H79.76L78.96 96.8306L78.16 96.4918L77.52 96.3224L76.72 96.153L75.92 95.8142L75.44 95.6448L74.8 95.306L74.32 95.1366L73.84 94.7978L73.36 94.6284L72.88 94.2896L72.4 93.9508L71.92 93.612L71.44 93.2732L70.96 92.9344L70.32 92.4262L69.84 91.918L69.36 91.4098L69.04 90.9016L68.72 90.5628L68.4 90.0546L68.24 89.7158L68.08 89.377L67.76 88.8689L67.44 88.3607L67.12 87.8525L66.96 87.1749L66.64 86.6667L66.48 85.9891L66.16 85.1421Z" stroke="black" stroke-width="4"/>
<path d="M66 51.1083V63.8599V64H69.3333L70.3333 63.8599L71.5 63.5796L72.1667 63.4395L73 63.1592L73.5 63.0191L74 62.7389L74.5 62.5987L75 62.3185L75.5 62.1783L76 61.8981L76.5 61.6178L77 61.3376L77.6667 60.9172L78 60.6369L78.3333 60.3567L78.8333 59.9363L79.1667 59.5159L79.6667 58.9554L79.8333 58.6752L80.1667 58.2548L80.3333 57.8344L80.5 57.414L80.8333 56.5732L81 55.8431V42H75.8333L74.8333 42.1401L74.1667 42.4204L73.5 42.5605L73 42.8408L72.5 42.9809L72 43.121L71.5 43.4013L71.1667 43.6815L70.6667 43.9618L70.3333 44.242L69.8333 44.6624L69.3333 45.0828L68.8333 45.5032L68.5 45.7834L68 46.3439L67.5 46.9045L67.1667 47.465L66.8333 48.0255L66.6667 48.586L66.3333 49.0064L66.1667 49.9873V50.6879L66 51.1083Z" fill="white" stroke="black" stroke-width="4"/>
<path d="M60.8433 53.0773L61 88H58.6493L56.9254 87.8646L56.4552 87.7293L55.2015 87.5939L54.1045 87.3232L53.3209 87.1878L52.3806 87.0525L51.7537 86.7818L51.1269 86.6464L50.5 86.3757L49.8731 86.2403L49.2463 85.9696L48.6194 85.6989L47.9925 85.4282L47.3657 85.1575L46.7388 84.8867L46.1119 84.616L45.4851 84.2099L45.0149 83.9392L44.5448 83.6685L44.2313 83.3978L43.7612 83.1271L43.291 82.721L42.8209 82.3149L42.3507 81.9088L41.8806 81.3674L41.5672 80.9613L41.097 80.4199L40.7836 79.8785L40.3134 78.9309L40.1567 78.2541L40 77.9479V39H44.5448L45.6418 39.1354L46.7388 39.4061L47.209 39.5414L47.5224 39.6768L47.9925 39.8122L48.306 39.9475L48.7761 40.0829L49.2463 40.2182L49.7164 40.489L50.1866 40.6243L50.6567 40.895L51.1269 41.0304L51.7537 41.3011L52.2239 41.5718L52.694 41.8425L53.1642 42.1133L53.6343 42.384L54.2612 42.7901L54.7313 43.1961L55.0448 43.4669L55.6716 43.8729L56.1418 44.279L56.4552 44.5497L56.7687 44.8204L57.2388 45.3619L57.5522 45.768L58.0224 46.3094L58.4925 46.8508L58.9627 47.5276L59.2761 47.9337L59.5896 48.7459L59.903 49.1519L60.2164 49.6934L60.3731 50.3702L60.6866 51.047L60.8433 51.8591V53.0773Z" fill="black" stroke="black"/>
<path d="M132.625 84.75C132.708 84.4167 132.792 83.4375 132.875 81.8125C132.958 80.1458 133 78.0625 133 75.5625V63.8125C133 61.1042 132.958 58.9167 132.875 57.25C132.792 55.5833 132.708 54.625 132.625 54.375L128.812 53.75L128.938 51.3125H143.812C147.896 51.3125 150.979 52.0833 153.062 53.625C155.188 55.125 156.25 57.2917 156.25 60.125C156.25 62.4167 155.354 64.3542 153.562 65.9375C151.771 67.5208 149.438 68.4167 146.562 68.625L145.812 68.1875C149.771 68.3125 152.812 69.1875 154.938 70.8125C157.062 72.3958 158.125 74.6042 158.125 77.4375C158.125 80.6875 156.729 83.2708 153.938 85.1875C151.146 87.0625 147.354 88 142.562 88H128.938L128.812 85.625L132.625 84.75ZM138.25 76.9375C138.25 78.7708 138.271 80.4375 138.312 81.9375C138.354 83.3958 138.396 84.3125 138.438 84.6875C138.979 84.7708 139.708 84.875 140.625 85C141.542 85.0833 142.271 85.125 142.812 85.125C146.021 85.125 148.417 84.5417 150 83.375C151.625 82.2083 152.438 80.4375 152.438 78.0625C152.438 75.6042 151.583 73.7708 149.875 72.5625C148.208 71.3125 145.688 70.6875 142.312 70.6875C140.729 70.6875 139.625 70.6875 139 70.6875C138.417 70.6875 137.896 70.7292 137.438 70.8125V67.5625C138.229 67.6042 138.979 67.6458 139.688 67.6875C140.396 67.6875 141.167 67.6875 142 67.6875C144.75 67.6875 146.854 67.0833 148.312 65.875C149.812 64.6667 150.562 62.9583 150.562 60.75C150.562 58.5833 149.875 56.9375 148.5 55.8125C147.125 54.6458 145.146 54.0625 142.562 54.0625H138.375C138.333 54.3542 138.292 55.2917 138.25 56.875C138.25 58.4583 138.25 60.2292 138.25 62.1875V76.9375ZM176.5 88.5C174.083 88.5 171.896 87.9583 169.938 86.875C168.021 85.7917 166.479 84.25 165.312 82.25C164.188 80.2083 163.625 77.8125 163.625 75.0625C163.625 72.1042 164.229 69.5417 165.438 67.375C166.646 65.2083 168.229 63.5417 170.188 62.375C172.146 61.1667 174.25 60.5833 176.5 60.625C179.75 60.6667 182.292 61.75 184.125 63.875C185.958 66 186.875 69 186.875 72.875V74H167.688V71.25H182.75L182.062 72.0625V70.75C182.062 68.3333 181.521 66.4792 180.438 65.1875C179.354 63.8958 177.875 63.25 176 63.25C174.833 63.25 173.708 63.6042 172.625 64.3125C171.542 64.9792 170.667 66.0208 170 67.4375C169.333 68.8125 169 70.5625 169 72.6875V73.4375C169 76.8542 169.833 79.5208 171.5 81.4375C173.208 83.3542 175.396 84.3125 178.062 84.3125C179.521 84.3125 180.833 84.0208 182 83.4375C183.167 82.8542 184.292 81.9167 185.375 80.625L186.938 82.0625C185.771 84.2292 184.292 85.8542 182.5 86.9375C180.708 87.9792 178.708 88.5 176.5 88.5ZM204.625 88.5C202.208 88.5 200.021 87.9583 198.062 86.875C196.146 85.7917 194.604 84.25 193.438 82.25C192.312 80.2083 191.75 77.8125 191.75 75.0625C191.75 72.1042 192.354 69.5417 193.562 67.375C194.771 65.2083 196.354 63.5417 198.312 62.375C200.271 61.1667 202.375 60.5833 204.625 60.625C207.875 60.6667 210.417 61.75 212.25 63.875C214.083 66 215 69 215 72.875V74H195.812V71.25H210.875L210.188 72.0625V70.75C210.188 68.3333 209.646 66.4792 208.562 65.1875C207.479 63.8958 206 63.25 204.125 63.25C202.958 63.25 201.833 63.6042 200.75 64.3125C199.667 64.9792 198.792 66.0208 198.125 67.4375C197.458 68.8125 197.125 70.5625 197.125 72.6875V73.4375C197.125 76.8542 197.958 79.5208 199.625 81.4375C201.333 83.3542 203.521 84.3125 206.188 84.3125C207.646 84.3125 208.958 84.0208 210.125 83.4375C211.292 82.8542 212.417 81.9167 213.5 80.625L215.062 82.0625C213.896 84.2292 212.417 85.8542 210.625 86.9375C208.833 87.9792 206.833 88.5 204.625 88.5ZM229.5 88.5C227.958 88.5 226.417 88.3333 224.875 88C223.333 87.625 222.021 87.1458 220.938 86.5625L220.625 79.875H223.688L224.938 84.375C226.396 85.375 228.062 85.875 229.938 85.875C231.354 85.875 232.5 85.5417 233.375 84.875C234.25 84.1667 234.688 83.2292 234.688 82.0625C234.688 80.9792 234.292 80.0417 233.5 79.25C232.708 78.4167 231.167 77.5208 228.875 76.5625C225.917 75.2708 223.833 74.0417 222.625 72.875C221.417 71.6667 220.812 70.125 220.812 68.25C220.812 66.75 221.25 65.4375 222.125 64.3125C223.042 63.1458 224.292 62.25 225.875 61.625C227.458 60.9583 229.292 60.625 231.375 60.625C232.542 60.625 233.729 60.7292 234.938 60.9375C236.146 61.1458 237.146 61.4167 237.938 61.75L238.625 68.25H235.688L234.188 64C233.771 63.75 233.271 63.5625 232.688 63.4375C232.104 63.2708 231.479 63.1875 230.812 63.1875C229.354 63.1875 228.188 63.5417 227.312 64.25C226.438 64.9167 226 65.7917 226 66.875C226 68.125 226.479 69.1458 227.438 69.9375C228.396 70.6875 230.083 71.625 232.5 72.75C235.25 74 237.167 75.2292 238.25 76.4375C239.333 77.6458 239.875 79.1042 239.875 80.8125C239.875 83.0625 238.896 84.9167 236.938 86.375C234.979 87.7917 232.5 88.5 229.5 88.5ZM244.188 101.75L244.062 99.5L247.938 98.5625C247.938 98.3542 247.938 97.9792 247.938 97.4375C247.979 96.9375 248.021 96.2708 248.062 95.4375C248.104 94.6042 248.125 93.6042 248.125 92.4375C248.167 91.2708 248.188 89.9167 248.188 88.375L248.312 72.9375C248.312 71.6875 248.25 70.4167 248.125 69.125C248.042 67.8333 247.938 66.7917 247.812 66L243.812 65.125V63.0625L252.188 60.75L253.25 61.75L252.938 65.1875H253.125C254.292 63.6875 255.562 62.5625 256.938 61.8125C258.354 61.0208 259.875 60.625 261.5 60.625C263.792 60.625 265.812 61.2083 267.562 62.375C269.354 63.5 270.75 65.0625 271.75 67.0625C272.792 69.0208 273.312 71.2917 273.312 73.875C273.312 76.625 272.688 79.1042 271.438 81.3125C270.188 83.5208 268.479 85.2708 266.312 86.5625C264.188 87.8125 261.771 88.4375 259.062 88.4375C258.062 88.4375 257.021 88.3333 255.938 88.125C254.854 87.9167 253.896 87.6667 253.062 87.375V92.0625C253.062 93.6458 253.083 94.9792 253.125 96.0625C253.208 97.1875 253.271 98.0208 253.312 98.5625L258.438 99.375L258.312 101.75H244.188ZM259.25 85.375C260.917 85.375 262.375 84.9792 263.625 84.1875C264.917 83.3958 265.917 82.2292 266.625 80.6875C267.375 79.1458 267.771 77.2708 267.812 75.0625C267.854 73.0625 267.521 71.2917 266.812 69.75C266.146 68.2083 265.188 67 263.938 66.125C262.729 65.2083 261.333 64.75 259.75 64.75C258.458 64.75 257.25 65.0625 256.125 65.6875C255 66.2708 253.979 67.1458 253.062 68.3125V83.4375C253.896 84.0625 254.854 84.5417 255.938 84.875C257.021 85.2083 258.125 85.375 259.25 85.375ZM292 88.5C289.292 88.5 286.917 87.9167 284.875 86.75C282.875 85.5833 281.312 83.9583 280.188 81.875C279.062 79.75 278.5 77.3333 278.5 74.625C278.5 71.7917 279.125 69.3333 280.375 67.25C281.625 65.1667 283.292 63.5417 285.375 62.375C287.458 61.2083 289.75 60.625 292.25 60.625C294.833 60.625 297.083 61.2083 299 62.375C300.958 63.5 302.458 65.1042 303.5 67.1875C304.583 69.2292 305.125 71.625 305.125 74.375C305.125 77 304.542 79.375 303.375 81.5C302.208 83.625 300.625 85.3333 298.625 86.625C296.667 87.875 294.458 88.5 292 88.5ZM292.625 85.5625C294.042 85.5625 295.271 85.1458 296.312 84.3125C297.354 83.4375 298.167 82.25 298.75 80.75C299.333 79.2083 299.625 77.4583 299.625 75.5C299.625 71.9167 298.875 69.0208 297.375 66.8125C295.917 64.5625 293.979 63.4375 291.562 63.4375C289.312 63.4375 287.5 64.375 286.125 66.25C284.792 68.125 284.125 70.6042 284.125 73.6875C284.125 76.0208 284.479 78.0833 285.188 79.875C285.938 81.6667 286.958 83.0625 288.25 84.0625C289.542 85.0625 291 85.5625 292.625 85.5625Z" fill="black"/>
</svg>
