<svg width="340" height="357" viewBox="0 0 340 357" fill="none" xmlns="http://www.w3.org/2000/svg">
<ellipse cx="170" cy="178.5" rx="170" ry="178.5" fill="#FCB122"/>
<path d="M181 243.836V179H187L191 179.617L194.5 180.852L198 181.47L201.5 182.705L204 183.322L206.5 184.557L208.5 185.175L211 186.41L213 187.027L215 188.262L216.5 188.88L218.5 190.115L220 190.732L221.5 191.967L223 192.585L224.5 193.82L225.5 194.437L226.5 195.055L228 196.29L229 197.525L230.5 198.142L231.5 199.377L232.5 199.995L233 200.612L234 201.847L235 202.464L236.5 203.699L237.5 204.934L238.5 205.552L239.5 206.787L240.5 208.022L241.5 209.257L242.5 210.492L243.5 211.727L244.5 212.962L245.5 214.814L246.5 216.049L247 217.284L248 218.519L248.5 219.754L249 220.989L249.5 221.607L250 223.459L251 225.311L251.5 227.164L252.5 229.016L253 230.869L254 233.339L254.5 235.191L255.5 238.896L256 243.836V259.891L255.5 262.978L255 264.213L254.5 266.683L253.5 269.153L253 271.005L252.5 272.858L251.5 274.71L251 276.563L250.5 277.798L249.5 279.033L248.5 280.885L247.5 282.738L246 284.59L245 285.825L244 287.06L243 288.295L241.5 289.53L239.5 290.765L238 292H237H232H227.5H224L221.5 291.383L219 290.148L217 289.53L214.5 288.913L212 287.678L210.5 287.06L208.5 285.825L207 285.208L205.5 283.973L204 283.355L202.5 282.12L201 280.885L199.5 279.65L198 278.415L196.5 277.18L194.5 275.328L193 273.475L191.5 271.623L190.5 269.77L189.5 268.536L188.5 266.683L188 265.448L187.5 264.213L186.5 262.361L185.5 260.508L184.5 258.656L184 256.186L183 254.333L182.5 251.863L181.5 248.776L181 246.923V243.836Z" fill="white"/>
<path d="M182 249.393L181.5 248.776M181.5 248.776L181 246.923V243.836V179H187L191 179.617L194.5 180.852L198 181.47L201.5 182.705L204 183.322L206.5 184.557L208.5 185.175L211 186.41L213 187.027L215 188.262L216.5 188.88L218.5 190.115L220 190.732L221.5 191.967L223 192.585L224.5 193.82L225.5 194.437L226.5 195.055L228 196.29L229 197.525L230.5 198.142L231.5 199.377L232.5 199.995L233 200.612L234 201.847L235 202.464L236.5 203.699L237.5 204.934L238.5 205.552L239.5 206.787L240.5 208.022L241.5 209.257L242.5 210.492L243.5 211.727L244.5 212.962L245.5 214.814L246.5 216.049L247 217.284L248 218.519L248.5 219.754L249 220.989L249.5 221.607L250 223.459L251 225.311L251.5 227.164L252.5 229.016L253 230.869L254 233.339L254.5 235.191L255.5 238.896L256 243.836V259.891L255.5 262.978L255 264.213L254.5 266.683L253.5 269.153L253 271.005L252.5 272.858L251.5 274.71L251 276.563L250.5 277.798L249.5 279.033L248.5 280.885L247.5 282.738L246 284.59L245 285.825L244 287.06L243 288.295L241.5 289.53L239.5 290.765L238 292H237H232H227.5H224L221.5 291.383L219 290.148L217 289.53L214.5 288.913L212 287.678L210.5 287.06L208.5 285.825L207 285.208L205.5 283.973L204 283.355L202.5 282.12L201 280.885L199.5 279.65L198 278.415L196.5 277.18L194.5 275.328L193 273.475L191.5 271.623L190.5 269.77L189.5 268.536L188.5 266.683L188 265.448L187.5 264.213L186.5 262.361L185.5 260.508L184.5 258.656L184 256.186L183 254.333L182.5 251.863L181.5 248.776Z" stroke="black" stroke-width="10"/>
<path d="M181 123.707V169.497V170H191L194 169.497L197.5 168.49L199.5 167.987L202 166.981L203.5 166.478L205 165.471L206.5 164.968L208 163.962L209.5 163.459L211 162.452L212.5 161.446L214 160.439L216 158.93L217 157.924L218 156.917L219.5 155.408L220.5 153.898L222 151.885L222.5 150.879L223.5 149.369L224 147.86L224.5 146.35L225.5 143.331L226 140.709V91H210.5L207.5 91.5032L205.5 92.5096L203.5 93.0127L202 94.0191L200.5 94.5223L199 95.0255L197.5 96.0318L196.5 97.0382L195 98.0446L194 99.0509L192.5 100.561L191 102.07L189.5 103.58L188.5 104.586L187 106.599L185.5 108.611L184.5 110.624L183.5 112.637L183 114.65L182 116.159L181.5 119.682V122.197L181 123.707Z" fill="white" stroke="black" stroke-width="10"/>
<path d="M169.5 131L170 260H162.5L157 259.5L155.5 259L151.5 258.5L148 257.5L145.5 257L142.5 256.5L140.5 255.5L138.5 255L136.5 254L134.5 253.5L132.5 252.5L130.5 251.5L128.5 250.5L126.5 249.5L124.5 248.5L122.5 247.5L120.5 246L119 245L117.5 244L116.5 243L115 242L113.5 240.5L112 239L110.5 237.5L109 235.5L108 234L106.5 232L105.5 230L104 226.5L103.5 224L103 222.869V79H117.5L121 79.5L124.5 80.5L126 81L127 81.5L128.5 82L129.5 82.5L131 83L132.5 83.5L134 84.5L135.5 85L137 86L138.5 86.5L140.5 87.5L142 88.5L143.5 89.5L145 90.5L146.5 91.5L148.5 93L150 94.5L151 95.5L153 97L154.5 98.5L155.5 99.5L156.5 100.5L158 102.5L159 104L160.5 106L162 108L163.5 110.5L164.5 112L165.5 115L166.5 116.5L167.5 118.5L168 121L169 123.5L169.5 126.5V131Z" fill="black" stroke="black"/>
</svg>
