<svg width="32" height="32" viewBox="0 0 32 32" fill="none" xmlns="http://www.w3.org/2000/svg">
  <rect width="32" height="32" rx="6" fill="#00C4CC"/>
  <path d="M16 6C10.477 6 6 10.477 6 16C6 21.523 10.477 26 16 26C21.523 26 26 21.523 26 16C26 10.477 21.523 6 16 6ZM16 8C20.411 8 24 11.589 24 16C24 20.411 20.411 24 16 24C11.589 24 8 20.411 8 16C8 11.589 11.589 8 16 8ZM16 10C12.691 10 10 12.691 10 16C10 19.309 12.691 22 16 22C19.309 22 22 19.309 22 16C22 12.691 19.309 10 16 10ZM16 12C18.206 12 20 13.794 20 16C20 18.206 18.206 20 16 20C13.794 20 12 18.206 12 16C12 13.794 13.794 12 16 12Z" fill="white"/>
</svg>
